arm26_states
version=1
nRows=38
nColumns=17
inDegrees=yes

# SIMM Motion File Header:
name arm26_states
datacolumns 17
datarows 38
otherdata 1
range 0.01400512 0.01573343
endheader
time	/jointset/r_shoulder/r_shoulder_elev/value	/jointset/r_shoulder/r_shoulder_elev/speed	/jointset/r_elbow/r_elbow_flex/value	/jointset/r_elbow/r_elbow_flex/speed	/forceset/TRIlong/activation	/forceset/TRIlong/fiber_length	/forceset/TRIlat/activation	/forceset/TRIlat/fiber_length	/forceset/TRImed/activation	/forceset/TRImed/fiber_length	/forceset/BIClong/activation	/forceset/BIClong/fiber_length	/forceset/BICshort/activation	/forceset/BICshort/fiber_length	/forceset/BRA/activation	/forceset/BRA/fiber_length
      0.01400512	     29.63763388	    -38.84417670	      2.40840684	     46.11486781	      0.09722968	      0.15491416	      0.09853254	      0.07140796	      0.04821088	      0.12487846	      0.09196126	      0.13731723	      0.04849188	      0.15047416	     -0.01019082	      0.09290813
      0.01400537	     29.63762416	    -38.89759612	      2.40841839	     46.25093400	      0.09722927	      0.15491416	      0.09853221	      0.07140791	      0.04820940	      0.12487825	      0.09196096	      0.13747810	      0.04849166	      0.15047416	     -0.01019100	      0.09290812
      0.01400662	     29.63757537	    -39.16322458	      2.40847663	     46.92750176	      0.09722724	      0.15491417	      0.09853054	      0.07140765	      0.04820199	      0.12487721	      0.09195944	      0.13828044	      0.04849058	      0.15047416	     -0.01019191	      0.09290811
      0.01401287	     29.63732653	    -40.45495673	      2.40878028	     50.21704568	      0.09721708	      0.15491423	      0.09852221	      0.07140636	      0.04816492	      0.12487199	      0.09195184	      0.14224437	      0.04848513	      0.15047419	     -0.01019647	      0.09290804
      0.01403694	     29.63629765	    -44.87975362	      2.41012915	     61.47664015	      0.09717794	      0.15491446	      0.09849012	      0.07140143	      0.04802222	      0.12485192	      0.09192258	      0.15691311	      0.04846418	      0.15047427	     -0.01021401	      0.09290777
      0.01406101	     29.63517242	    -48.46682398	      2.41172299	     70.58968648	      0.09713883	      0.15491468	      0.09845805	      0.07139656	      0.04787962	      0.12483184	      0.09189333	      0.17079257	      0.04844323	      0.15047436	     -0.01023156	      0.09290751
      0.01408196	     29.63413022	    -50.94594336	      2.41327001	     76.87392809	      0.09710481	      0.15491488	      0.09843015	      0.07139237	      0.04775562	      0.12481437	      0.09186789	      0.18200690	      0.04842501	      0.15047444	     -0.01024682	      0.09290727
      0.01410032	     29.63317860	    -52.67341466	      2.41472272	     81.24058885	      0.09707501	      0.15491505	      0.09840571	      0.07138874	      0.04764703	      0.12479907	      0.09184561	      0.19060419	      0.04840904	      0.15047450	     -0.01026020	      0.09290706
      0.01411867	     29.63219856	    -54.05558845	      2.41624714	     84.72245236	      0.09704522	      0.15491523	      0.09838128	      0.07138513	      0.04753849	      0.12478376	      0.09182333	      0.19732195	      0.04839309	      0.15047457	     -0.01027357	      0.09290685
      0.01413703	     29.63119560	    -55.18805514	      2.41782919	     87.56445666	      0.09701544	      0.15491540	      0.09835687	      0.07138156	      0.04743001	      0.12476846	      0.09180106	      0.20174679	      0.04837713	      0.15047463	     -0.01028695	      0.09290663
      0.01415539	     29.63017338	    -56.16923017	      2.41945951	     90.01878328	      0.09698567	      0.15491557	      0.09833245	      0.07137802	      0.04732159	      0.12475316	      0.09177880	      0.20418062	      0.04836119	      0.15047469	     -0.01030033	      0.09290642
      0.01417374	     29.62913395	    -57.07246883	      2.42113282	     92.27340145	      0.09695591	      0.15491575	      0.09830805	      0.07137452	      0.04721323	      0.12473785	      0.09175655	      0.20534663	      0.04834524	      0.15047476	     -0.01031371	      0.09290620
      0.01419598	     29.62785308	    -58.12076349	      2.42321396	     94.88705741	      0.09691988	      0.15491596	      0.09827850	      0.07137031	      0.04708204	      0.12471932	      0.09172960	      0.20592500	      0.04832594	      0.15047483	     -0.01032991	      0.09290593
      0.01421822	     29.62654916	    -59.14942468	      2.42535257	     97.45040607	      0.09688386	      0.15491617	      0.09824896	      0.07136615	      0.04695094	      0.12470079	      0.09170266	      0.20612872	      0.04830664	      0.15047490	     -0.01034612	      0.09290565
      0.01425114	     29.62457677	    -60.66127682	      2.42862317	    101.21704918	      0.09683056	      0.15491648	      0.09820525	      0.07136008	      0.04675698	      0.12467335	      0.09166280	      0.20621379	      0.04827807	      0.15047501	     -0.01037011	      0.09290523
      0.01428407	     29.62255467	    -62.16949654	      2.43201759	    104.97439336	      0.09677730	      0.15491679	      0.09816157	      0.07135411	      0.04656322	      0.12464592	      0.09162297	      0.20623027	      0.04824953	      0.15047511	     -0.01039411	      0.09290480
      0.01434262	     29.61883583	    -64.84977705	      2.43835992	    111.65150815	      0.09668265	      0.15491734	      0.09808395	      0.07134372	      0.04621909	      0.12459713	      0.09155218	      0.20623737	      0.04819880	      0.15047528	     -0.01043678	      0.09290401
      0.01447546	     29.60981772	    -70.92532978	      2.45419690	    126.78670072	      0.09646836	      0.15491860	      0.09790819	      0.07132126	      0.04544061	      0.12448650	      0.09139188	      0.20624447	      0.04808389	      0.15047564	     -0.01053358	      0.09290206
      0.01476962	     29.58697795	    -84.36066019	      2.49641606	    160.25570971	      0.09599582	      0.15492144	      0.09752057	      0.07127657	      0.04372761	      0.12424162	      0.09103833	      0.20625072	      0.04783034	      0.15047624	     -0.01074795	      0.09289677
      0.01530693	     29.53506892	   -108.84519870	      2.59891740	    221.24902036	      0.09513977	      0.15492692	      0.09681817	      0.07121071	      0.04063672	      0.12379444	      0.09039754	      0.20625129	      0.04737038	      0.15047638	     -0.01113951	      0.09288253
      0.01539428	     29.52538723	   -112.81937056	      2.61867689	    231.14913550	      0.09500145	      0.15492787	      0.09670466	      0.07120172	      0.04013880	      0.12372172	      0.09029397	      0.20625020	      0.04729598	      0.15047622	     -0.01120317	      0.09287952
      0.01543796	     29.52041622	   -114.80582133	      2.62888090	    236.09763088	      0.09493238	      0.15492835	      0.09664798	      0.07119740	      0.03989032	      0.12368535	      0.09024224	      0.20624952	      0.04725883	      0.15047611	     -0.01123500	      0.09287793
      0.01547709	     29.51588876	   -116.58522698	      2.63820672	    240.53036441	      0.09487055	      0.15492878	      0.09659723	      0.07119361	      0.03966796	      0.12365276	      0.09019594	      0.20624883	      0.04722556	      0.15047599	     -0.01126352	      0.09287646
      0.01551329	     29.51163940	   -118.23068303	      2.64698644	    244.62942409	      0.09481341	      0.15492918	      0.09655033	      0.07119018	      0.03946253	      0.12362262	      0.09015314	      0.20624812	      0.04719481	      0.15047587	     -0.01128989	      0.09287506
      0.01553431	     29.50914407	   -119.18622171	      2.65215373	    247.00980950	      0.09478024	      0.15492942	      0.09652310	      0.07118823	      0.03934332	      0.12360511	      0.09012830	      0.20624768	      0.04717696	      0.15047579	     -0.01130521	      0.09287423
      0.01555716	     29.50640863	   -120.22487638	      2.65782781	    249.59725402	      0.09474419	      0.15492968	      0.09649352	      0.07118613	      0.03921381	      0.12358608	      0.09010131	      0.20624717	      0.04715756	      0.15047570	     -0.01132187	      0.09287331
      0.01557215	     29.50460092	   -120.90631524	      2.66158290	    251.29482337	      0.09472055	      0.15492985	      0.09647412	      0.07118477	      0.03912888	      0.12357359	      0.09008360	      0.20624683	      0.04714484	      0.15047564	     -0.01133279	      0.09287269
      0.01558713	     29.50278525	   -121.58686303	      2.66535874	    252.99017539	      0.09469695	      0.15493002	      0.09645474	      0.07118342	      0.03904409	      0.12356111	      0.09006592	      0.20624647	      0.04713213	      0.15047558	     -0.01134371	      0.09287208
      0.01559246	     29.50213633	   -121.82915683	      2.66670924	    253.59376812	      0.09468855	      0.15493008	      0.09644785	      0.07118294	      0.03901391	      0.12355667	      0.09005963	      0.20624635	      0.04712761	      0.15047556	     -0.01134759	      0.09287185
      0.01559544	     29.50177241	   -121.96482514	      2.66746684	    253.93173977	      0.09468384	      0.15493012	      0.09644399	      0.07118268	      0.03899701	      0.12355418	      0.09005610	      0.20624627	      0.04712508	      0.15047554	     -0.01134977	      0.09287173
      0.01559654	     29.50163888	   -122.01456714	      2.66774487	    254.05565516	      0.09468212	      0.15493013	      0.09644257	      0.07118258	      0.03899082	      0.12355327	      0.09005481	      0.20624625	      0.04712415	      0.15047554	     -0.01135056	      0.09287168
      0.01559676	     29.50161228	   -122.02286068	      2.66780025	    254.07619633	      0.09468177	      0.15493013	      0.09644229	      0.07118256	      0.03898958	      0.12355309	      0.09005456	      0.20623875	      0.04712396	      0.15047554	     -0.01135072	      0.09287167
      0.01559697	     29.50158568	   -122.02309184	      2.66785564	    254.07605591	      0.09468143	      0.15493013	      0.09644201	      0.07118254	      0.03898835	      0.12355291	      0.09005430	      0.20619388	      0.04712378	      0.15047554	     -0.01135088	      0.09287166
      0.01559806	     29.50145268	   -122.02424745	      2.66813257	    254.07535320	      0.09467971	      0.15493015	      0.09644060	      0.07118244	      0.03898218	      0.12355200	      0.09005301	      0.20597210	      0.04712285	      0.15047553	     -0.01135168	      0.09287162
      0.01560351	     29.50078765	   -122.03001997	      2.66951723	    254.07182387	      0.09467112	      0.15493021	      0.09643355	      0.07118196	      0.03895134	      0.12354746	      0.09004658	      0.20492165	      0.04711823	      0.15047551	     -0.01135565	      0.09287139
      0.01563076	     29.49746206	   -122.05874537	      2.67644020	    254.05378360	      0.09462821	      0.15493052	      0.09639832	      0.07117956	      0.03879723	      0.12352476	      0.09001443	      0.20072875	      0.04709513	      0.15047538	     -0.01137551	      0.09287023
      0.01567264	     29.49234923	   -122.10245175	      2.68707955	    254.02478432	      0.09456228	      0.15493101	      0.09634421	      0.07117596	      0.03856060	      0.12348986	      0.08996506	      0.19623901	      0.04705964	      0.15047517	     -0.01140603	      0.09286841
      0.01573343	     29.48492568	   -122.16493627	      2.70251837	    253.97998042	      0.09446671	      0.15493172	      0.09626576	      0.07117089	      0.03821769	      0.12343920	      0.08989346	      0.19172882	      0.04700817	      0.15047483	     -0.01145032	      0.09286567
